<svg width="153" height="70" viewBox="0 0 153 70" fill="none" xmlns="http://www.w3.org/2000/svg">
<g clip-path="url(#clip0_4803_8823)">
<path d="M119.541 11.6233L115.043 34.2461H124.085L119.544 11.6233H119.541ZM119.541 11.6233L115.043 34.2461H124.085L119.544 11.6233H119.541ZM115.043 34.2461H124.085L119.544 11.6233L115.046 34.2461H115.043ZM134.447 46.6888V44.8073H137.656L130.74 10.3968H121.369L124.096 23.5101H132.547L132.827 25.3917H124.486L128.907 46.6888H126.357L124.409 36.1329H114.674L112.682 46.6888H110.176L118.055 8.51782H135.843L136.118 10.3994H133.068L139.989 44.8099H143.607L143.881 46.6914H134.444L134.447 46.6888ZM125.841 0C110.841 0 98.6851 12.3592 98.6851 27.6046C98.6851 42.8501 110.841 55.2093 125.841 55.2093C140.842 55.2093 153.003 42.8501 153.003 27.6046C153.003 12.3592 140.839 0 125.841 0ZM119.544 11.6233L115.046 34.2461H124.088L119.546 11.6233H119.544ZM119.544 11.6233L115.046 34.2461H124.088L119.546 11.6233H119.544Z" fill="#003B4B"/>
<path d="M100.513 65.319H102.859L101.673 59.2568L100.513 65.319ZM98.793 69.0925L101.127 57.8555H102.218L104.564 69.0925H103.54L102.993 66.081H100.364L99.8045 69.0925H98.7955H98.793Z" fill="#003B4B"/>
<path d="M105.904 69.0925V57.8555H109.876V58.6462H106.941V62.8764H109.385V63.6541H106.941V69.0925H105.904Z" fill="#003B4B"/>
<path d="M112.238 57.8555H111.2V69.0925H112.238V57.8555Z" fill="#003B4B"/>
<path d="M116.971 69.0925V57.8555H118.024V62.8346H121.503V57.8555H122.54V69.0925H121.503V63.6254H118.024V69.0925H116.971Z" fill="#003B4B"/>
<path d="M127.086 68.3853C127.577 68.3853 127.951 68.2861 128.206 68.0878C128.46 67.8895 128.637 67.6102 128.732 67.2553C128.827 66.9004 128.876 66.4855 128.876 66.0131V60.9218C128.876 60.4494 128.827 60.0397 128.732 59.6874C128.637 59.3351 128.462 59.0663 128.206 58.8758C127.951 58.6853 127.577 58.5914 127.086 58.5914C126.596 58.5914 126.234 58.6853 125.975 58.8758C125.715 59.0663 125.538 59.3351 125.443 59.6874C125.348 60.0397 125.3 60.4494 125.3 60.9218V66.0131C125.3 66.4855 125.348 66.8978 125.443 67.2553C125.538 67.6102 125.715 67.8895 125.975 68.0878C126.234 68.2861 126.604 68.3853 127.086 68.3853ZM127.086 69.2308C126.357 69.2308 125.787 69.0847 125.374 68.795C124.961 68.5027 124.668 68.0982 124.501 67.5737C124.332 67.0518 124.25 66.4516 124.25 65.7783V61.1175C124.25 60.4338 124.337 59.8388 124.517 59.3351C124.694 58.8315 124.989 58.44 125.405 58.1634C125.818 57.8868 126.38 57.7458 127.091 57.7458C127.803 57.7458 128.375 57.8842 128.791 58.1634C129.204 58.44 129.5 58.8315 129.672 59.3351C129.844 59.8388 129.931 60.4338 129.931 61.1175V65.7939C129.931 66.4698 129.846 67.0648 129.679 67.5841C129.51 68.1035 129.222 68.5079 128.811 68.7976C128.403 69.0899 127.828 69.2334 127.091 69.2334" fill="#003B4B"/>
<path d="M133.009 69.0925V58.6749H130.919V57.8555H136.066V58.6749H134.046V69.0925H133.009Z" fill="#003B4B"/>
<path d="M137.281 69.0925V57.8555H141.278V58.6749H138.331V62.892H140.734V63.6671H138.331V68.3018H141.306V69.0925H137.281Z" fill="#003B4B"/>
<path d="M142.726 69.0925V57.8555H143.763V68.3018H146.903V69.0925H142.726Z" fill="#003B4B"/>
<path d="M150.287 69.2307C149.686 69.2307 149.188 69.1029 148.792 68.8497C148.397 68.5966 148.099 68.2391 147.899 67.7824C147.699 67.3231 147.576 66.7907 147.529 66.1801L148.443 65.9035C148.489 66.3654 148.572 66.7855 148.69 67.1587C148.808 67.5345 148.995 67.8294 149.249 68.046C149.504 68.2626 149.855 68.3722 150.299 68.3722C150.79 68.3722 151.172 68.2417 151.447 67.9833C151.719 67.725 151.855 67.3127 151.855 66.749C151.855 66.2584 151.734 65.8304 151.493 65.465C151.252 65.0997 150.923 64.7187 150.505 64.3194L148.554 62.4196C148.207 62.0778 147.953 61.7228 147.789 61.3575C147.624 60.9921 147.542 60.5929 147.542 60.1571C147.542 59.3794 147.771 58.7844 148.225 58.3669C148.679 57.9493 149.285 57.7432 150.04 57.7432C150.43 57.7432 150.785 57.7927 151.098 57.8945C151.411 57.9963 151.681 58.1607 151.904 58.3877C152.127 58.6148 152.302 58.9071 152.43 59.2698C152.559 59.6299 152.643 60.0709 152.689 60.5877L151.801 60.8225C151.765 60.3502 151.691 59.9457 151.575 59.609C151.462 59.2724 151.283 59.0141 151.044 58.8392C150.803 58.6644 150.469 58.5756 150.04 58.5756C149.586 58.5756 149.213 58.6957 148.921 58.9358C148.628 59.1758 148.484 59.5516 148.484 60.0605C148.484 60.3658 148.541 60.6425 148.654 60.893C148.767 61.1435 148.97 61.4097 149.262 61.6967L151.213 63.5705C151.65 63.988 152.027 64.4499 152.345 64.9588C152.664 65.4677 152.823 66.0418 152.823 66.6785C152.823 67.2422 152.715 67.7145 152.502 68.0929C152.289 68.4713 151.991 68.7558 151.609 68.9463C151.226 69.1368 150.785 69.2307 150.284 69.2307" fill="#003B4B"/>
</g>
<path d="M80.4938 63.5075C81.3499 63.2364 81.8573 62.4553 81.8573 60.861C81.8573 58.9638 80.9694 58.071 79.0986 58.071H77.1008V69.2309H79.2254C81.2073 69.2309 82.0793 68.4019 82.0793 66.2018C82.0793 64.5278 81.4768 63.7466 80.4938 63.5075ZM80.9694 60.9407C80.9694 62.4553 80.5889 63.1727 79.0827 63.1727H78.0363V58.7725H79.0193C80.3987 58.7725 80.9694 59.4421 80.9694 60.9407ZM78.0363 68.5294V63.8263H79.0034C80.6365 63.8263 81.1597 64.464 81.1597 66.138C81.1597 67.9236 80.5572 68.5294 79.0986 68.5294H78.0363Z" fill="#003B4B"/>
<path d="M85.516 63.6828L83.8671 58.071H82.8524L85.0404 64.7032V69.2309H85.9758V64.7032L88.1638 58.071H87.1491L85.516 63.6828Z" fill="#003B4B"/>
<g clip-path="url(#clip1_4803_8823)">
<path d="M35 70C54.33 70 70 54.33 70 35C70 15.67 54.33 0 35 0C15.67 0 0 15.67 0 35C0 54.33 15.67 70 35 70Z" fill="#2D4254"/>
<path d="M35.0109 67.2182C52.8965 67.2182 67.3957 52.719 67.3957 34.8335C67.3957 16.9479 52.8965 2.44873 35.0109 2.44873C17.1254 2.44873 2.62622 16.9479 2.62622 34.8335C2.62622 52.719 17.1254 67.2182 35.0109 67.2182Z" fill="#2D4254"/>
<path d="M26.9939 50.5251H23.2191V48.8328H22.7991V52.9252H23.2191V50.8945H26.9939V52.9252H27.4139V48.8328H26.9939V50.5251Z" fill="url(#paint0_linear_4803_8823)"/>
<path d="M31.5308 48.7129C30.2773 48.7129 29.2876 49.665 29.2876 50.8434C29.2876 52.0217 30.278 52.9991 31.5308 52.9991C32.7837 52.9991 33.7935 52.0398 33.7935 50.8434C33.7935 49.6469 32.7908 48.7129 31.5308 48.7129ZM31.5308 52.6238C30.5223 52.6238 29.7322 51.8279 29.7322 50.844C29.7322 49.8601 30.5223 49.0823 31.5308 49.0823C32.5394 49.0823 33.3547 49.8724 33.3547 50.844C33.3547 51.8156 32.553 52.6238 31.5308 52.6238Z" fill="url(#paint1_linear_4803_8823)"/>
<path d="M34.6174 49.2087H36.1963V52.9252H36.6163V49.2087H38.1959V48.8328H34.6174V49.2087Z" fill="url(#paint2_linear_4803_8823)"/>
<path d="M39.8349 50.9451H41.5583V50.575H39.8349V49.2087H42.6802V48.8328H39.4155V52.9252H42.8183V52.5492H39.8349V50.9451Z" fill="url(#paint3_linear_4803_8823)"/>
<path d="M44.9832 48.8848H44.5632V52.9772H47.2005V52.6012H44.9832V48.8848Z" fill="url(#paint4_linear_4803_8823)"/>
<path d="M10.1013 51.0262H18.8001V50.6865H10.1013V51.0262Z" fill="url(#paint5_linear_4803_8823)"/>
<path d="M59.8985 50.6865H51.1997V51.0262H59.8985V50.6865Z" fill="url(#paint6_linear_4803_8823)"/>
<path d="M48.2142 34.854L48.2097 34.8469C48.1747 34.8015 48.1319 34.7613 48.0814 34.7276C48.034 34.6965 47.9848 34.6706 47.9362 34.6518L47.9226 34.6479C47.5894 34.5883 47.2666 34.6537 46.9646 34.8417C46.6574 35.0323 46.4863 35.2753 46.4571 35.565C46.45 35.6337 46.4707 35.6973 46.5154 35.7459C46.5556 35.7887 46.6094 35.8217 46.6768 35.8431C46.7364 35.8632 46.7889 35.8723 46.8356 35.8723C46.975 35.8723 47.0625 35.7964 47.1163 35.7212C47.3081 35.4289 47.5959 35.2669 47.9919 35.2248C48.0827 35.2189 48.1552 35.1807 48.2084 35.112C48.2661 35.0368 48.2687 34.9461 48.2136 34.8547L48.2142 34.854ZM50.9202 22.9488C50.6169 22.6539 50.1295 22.7492 49.4684 23.236C48.6439 23.8822 47.907 24.623 47.2789 25.4364C45.2502 27.9104 43.5113 30.586 42.1106 33.386C42.0639 33.4728 42.0225 33.561 41.9888 33.6439C41.8539 33.92 41.6997 34.1936 41.5299 34.4574C41.3652 34.7153 41.141 34.9415 40.8688 35.1269C40.7566 35.193 40.6652 35.2773 40.5965 35.3771C40.5661 35.4205 40.533 35.4937 40.5512 35.5832L40.5188 35.5968C39.214 36.116 37.8393 36.5386 36.4277 36.8529C36.1386 36.9359 35.8489 36.9754 35.5663 36.9689C35.2973 36.9637 35.0413 36.8283 34.8047 36.5638C34.7127 36.466 34.594 36.4063 34.4521 36.3856C34.3076 36.3649 34.174 36.3966 34.0528 36.4828C33.9057 36.5962 33.8389 36.7259 33.8532 36.8678C33.8655 37.0026 33.9388 37.1264 34.071 37.2399C34.3795 37.4661 34.4936 37.7337 34.4203 38.0559C34.0256 39.6024 33.1629 40.9343 31.8556 42.0135H31.8394L31.8187 42.0342C31.7331 42.1146 31.6391 42.1768 31.538 42.2215C31.4512 42.2611 31.3468 42.2494 31.2198 42.1878C31.1491 42.1399 31.1109 42.0835 31.1018 42.0148C31.0914 41.9305 31.0914 41.8482 31.1018 41.7691V41.7594C31.1025 41.7341 31.1064 41.7134 31.1128 41.6985L31.1193 41.6836V41.668C31.1193 41.6324 31.1232 41.6012 31.1297 41.574C31.1446 41.5526 31.1517 41.5261 31.1537 41.4937C31.6067 39.4131 32.5245 37.4985 33.8772 35.8062C33.9025 35.7796 33.9226 35.7517 33.9375 35.7238C34.0353 35.6091 34.1423 35.5041 34.2564 35.4114C34.3646 35.3239 34.5046 35.2675 34.6712 35.2455C34.8144 35.2319 34.9227 35.1878 34.992 35.1126C35.0477 35.0543 35.0951 34.9467 35.0017 34.7691C34.9337 34.6525 34.8358 34.5825 34.7107 34.5598C34.5986 34.5403 34.4845 34.5436 34.3691 34.5708C34.1423 34.6343 33.9459 34.7374 33.7839 34.878C33.6277 35.0135 33.4825 35.1645 33.3554 35.3246C31.8576 37.1258 30.8477 39.1629 30.3564 41.3789C30.3325 41.493 30.3208 41.5967 30.3208 41.6862V41.7775C30.3208 42.0031 30.3474 42.2092 30.4012 42.3913C30.4576 42.5858 30.5982 42.7504 30.8231 42.8833C30.9916 42.9727 31.1563 43.0174 31.3151 43.0174C31.3877 43.0174 31.4589 43.0084 31.5289 42.9902C31.7415 42.9332 31.9457 42.8412 32.1317 42.7167C32.4668 42.5074 32.7721 42.2649 33.0365 41.9953C34.1047 40.9447 34.8151 39.7041 35.1489 38.31V38.3028C35.202 37.9003 35.4502 37.6819 35.9078 37.6365C36.755 37.5393 37.5788 37.3662 38.3565 37.1225C39.1311 36.8801 39.9056 36.6092 40.6601 36.3169C40.6853 36.3072 40.7093 36.2962 40.7327 36.2851C40.7236 36.3052 40.7132 36.3253 40.7015 36.3454C40.6789 36.3953 40.6555 36.4504 40.6315 36.5133L40.1856 37.608C40.0819 37.8569 39.9717 38.0766 39.8654 38.2899C39.7403 38.5407 39.6114 38.8 39.4921 39.1052C38.958 40.4262 38.7214 41.6855 38.748 43.0693C38.7331 43.2087 38.7882 43.3312 38.8984 43.4076C38.9697 43.4569 39.0572 43.4809 39.146 43.4809C39.2218 43.4809 39.2989 43.4634 39.367 43.4277C39.5316 43.3409 39.6256 43.1646 39.6256 42.9436C39.6256 40.4391 40.1726 39.2744 41.4955 36.4627L41.6427 36.1497C41.9564 35.3745 42.4567 34.6965 43.1302 34.1359C43.987 33.4307 44.7583 32.6406 45.4207 31.7902C47.1409 29.7051 48.7742 27.5235 50.2773 25.3068C50.5184 24.9529 50.7336 24.5822 50.9183 24.2011L50.9507 24.1324C51.057 23.9561 51.1277 23.7675 51.1633 23.5724C51.2028 23.3598 51.1205 23.1504 50.9196 22.9495L50.9202 22.9488ZM48.6213 26.2998C47.7184 27.6162 46.728 28.9507 45.6754 30.2638C44.7376 31.435 43.9883 32.2705 43.4445 32.7521C43.6701 32.0378 44.1801 31.0695 44.9631 29.8672C45.8375 28.5268 46.7954 27.2363 47.8124 26.0334C48.7347 24.9419 49.5034 24.1998 50.1003 23.8232C49.9078 24.3151 49.4114 25.1461 48.6206 26.2998H48.6213ZM50.9202 22.9488C50.6169 22.6539 50.1295 22.7492 49.4684 23.236C48.6439 23.8822 47.907 24.623 47.2789 25.4364C45.2502 27.9104 43.5113 30.586 42.1106 33.386C42.0639 33.4728 42.0225 33.561 41.9888 33.6439C41.8539 33.92 41.6997 34.1936 41.5299 34.4574C41.3652 34.7153 41.141 34.9415 40.8688 35.1269C40.7566 35.193 40.6652 35.2773 40.5965 35.3771C40.5661 35.4205 40.533 35.4937 40.5512 35.5832L40.5188 35.5968C39.214 36.116 37.8393 36.5386 36.4277 36.8529C36.1386 36.9359 35.8489 36.9754 35.5663 36.9689C35.2973 36.9637 35.0413 36.8283 34.8047 36.5638C34.7127 36.466 34.594 36.4063 34.4521 36.3856C34.3076 36.3649 34.174 36.3966 34.0528 36.4828C33.9057 36.5962 33.8389 36.7259 33.8532 36.8678C33.8655 37.0026 33.9388 37.1264 34.071 37.2399C34.3795 37.4661 34.4936 37.7337 34.4203 38.0559C34.0256 39.6024 33.1629 40.9343 31.8556 42.0135H31.8394L31.8187 42.0342C31.7331 42.1146 31.6391 42.1768 31.538 42.2215C31.4512 42.2611 31.3468 42.2494 31.2198 42.1878C31.1491 42.1399 31.1109 42.0835 31.1018 42.0148C31.0914 41.9305 31.0914 41.8482 31.1018 41.7691V41.7594C31.1025 41.7341 31.1064 41.7134 31.1128 41.6985L31.1193 41.6836V41.668C31.1193 41.6324 31.1232 41.6012 31.1297 41.574C31.1446 41.5526 31.1517 41.5261 31.1537 41.4937C31.6067 39.4131 32.5245 37.4985 33.8772 35.8062C33.9025 35.7796 33.9226 35.7517 33.9375 35.7238C34.0353 35.6091 34.1423 35.5041 34.2564 35.4114C34.3646 35.3239 34.5046 35.2675 34.6712 35.2455C34.8144 35.2319 34.9227 35.1878 34.992 35.1126C35.0477 35.0543 35.0951 34.9467 35.0017 34.7691C34.9337 34.6525 34.8358 34.5825 34.7107 34.5598C34.5986 34.5403 34.4845 34.5436 34.3691 34.5708C34.1423 34.6343 33.9459 34.7374 33.7839 34.878C33.6277 35.0135 33.4825 35.1645 33.3554 35.3246C31.8576 37.1258 30.8477 39.1629 30.3564 41.3789C30.3325 41.493 30.3208 41.5967 30.3208 41.6862V41.7775C30.3208 42.0031 30.3474 42.2092 30.4012 42.3913C30.4576 42.5858 30.5982 42.7504 30.8231 42.8833C30.9916 42.9727 31.1563 43.0174 31.3151 43.0174C31.3877 43.0174 31.4589 43.0084 31.5289 42.9902C31.7415 42.9332 31.9457 42.8412 32.1317 42.7167C32.4668 42.5074 32.7721 42.2649 33.0365 41.9953C34.1047 40.9447 34.8151 39.7041 35.1489 38.31V38.3028C35.202 37.9003 35.4502 37.6819 35.9078 37.6365C36.755 37.5393 37.5788 37.3662 38.3565 37.1225C39.1311 36.8801 39.9056 36.6092 40.6601 36.3169C40.6853 36.3072 40.7093 36.2962 40.7327 36.2851C40.7236 36.3052 40.7132 36.3253 40.7015 36.3454C40.6789 36.3953 40.6555 36.4504 40.6315 36.5133L40.1856 37.608C40.0819 37.8569 39.9717 38.0766 39.8654 38.2899C39.7403 38.5407 39.6114 38.8 39.4921 39.1052C38.958 40.4262 38.7214 41.6855 38.748 43.0693C38.7331 43.2087 38.7882 43.3312 38.8984 43.4076C38.9697 43.4569 39.0572 43.4809 39.146 43.4809C39.2218 43.4809 39.2989 43.4634 39.367 43.4277C39.5316 43.3409 39.6256 43.1646 39.6256 42.9436C39.6256 40.4391 40.1726 39.2744 41.4955 36.4627L41.6427 36.1497C41.9564 35.3745 42.4567 34.6965 43.1302 34.1359C43.987 33.4307 44.7583 32.6406 45.4207 31.7902C47.1409 29.7051 48.7742 27.5235 50.2773 25.3068C50.5184 24.9529 50.7336 24.5822 50.9183 24.2011L50.9507 24.1324C51.057 23.9561 51.1277 23.7675 51.1633 23.5724C51.2028 23.3598 51.1205 23.1504 50.9196 22.9495L50.9202 22.9488ZM48.6213 26.2998C47.7184 27.6162 46.728 28.9507 45.6754 30.2638C44.7376 31.435 43.9883 32.2705 43.4445 32.7521C43.6701 32.0378 44.1801 31.0695 44.9631 29.8672C45.8375 28.5268 46.7954 27.2363 47.8124 26.0334C48.7347 24.9419 49.5034 24.1998 50.1003 23.8232C49.9078 24.3151 49.4114 25.1461 48.6206 26.2998H48.6213ZM48.2142 34.854L48.2097 34.8469C48.1747 34.8015 48.1319 34.7613 48.0814 34.7276C48.034 34.6965 47.9848 34.6706 47.9362 34.6518L47.9226 34.6479C47.5894 34.5883 47.2666 34.6537 46.9646 34.8417C46.6574 35.0323 46.4863 35.2753 46.4571 35.565C46.45 35.6337 46.4707 35.6973 46.5154 35.7459C46.5556 35.7887 46.6094 35.8217 46.6768 35.8431C46.7364 35.8632 46.7889 35.8723 46.8356 35.8723C46.975 35.8723 47.0625 35.7964 47.1163 35.7212C47.3081 35.4289 47.5959 35.2669 47.9919 35.2248C48.0827 35.2189 48.1552 35.1807 48.2084 35.112C48.2661 35.0368 48.2687 34.9461 48.2136 34.8547L48.2142 34.854ZM48.2142 34.854L48.2097 34.8469C48.1747 34.8015 48.1319 34.7613 48.0814 34.7276C48.034 34.6965 47.9848 34.6706 47.9362 34.6518L47.9226 34.6479C47.5894 34.5883 47.2666 34.6537 46.9646 34.8417C46.6574 35.0323 46.4863 35.2753 46.4571 35.565C46.45 35.6337 46.4707 35.6973 46.5154 35.7459C46.5556 35.7887 46.6094 35.8217 46.6768 35.8431C46.7364 35.8632 46.7889 35.8723 46.8356 35.8723C46.975 35.8723 47.0625 35.7964 47.1163 35.7212C47.3081 35.4289 47.5959 35.2669 47.9919 35.2248C48.0827 35.2189 48.1552 35.1807 48.2084 35.112C48.2661 35.0368 48.2687 34.9461 48.2136 34.8547L48.2142 34.854ZM50.9202 22.9488C50.6169 22.6539 50.1295 22.7492 49.4684 23.236C48.6439 23.8822 47.907 24.623 47.2789 25.4364C45.2502 27.9104 43.5113 30.586 42.1106 33.386C42.0639 33.4728 42.0225 33.561 41.9888 33.6439C41.8539 33.92 41.6997 34.1936 41.5299 34.4574C41.3652 34.7153 41.141 34.9415 40.8688 35.1269C40.7566 35.193 40.6652 35.2773 40.5965 35.3771C40.5661 35.4205 40.533 35.4937 40.5512 35.5832L40.5188 35.5968C39.214 36.116 37.8393 36.5386 36.4277 36.8529C36.1386 36.9359 35.8489 36.9754 35.5663 36.9689C35.2973 36.9637 35.0413 36.8283 34.8047 36.5638C34.7127 36.466 34.594 36.4063 34.4521 36.3856C34.3076 36.3649 34.174 36.3966 34.0528 36.4828C33.9057 36.5962 33.8389 36.7259 33.8532 36.8678C33.8655 37.0026 33.9388 37.1264 34.071 37.2399C34.3795 37.4661 34.4936 37.7337 34.4203 38.0559C34.0256 39.6024 33.1629 40.9343 31.8556 42.0135H31.8394L31.8187 42.0342C31.7331 42.1146 31.6391 42.1768 31.538 42.2215C31.4512 42.2611 31.3468 42.2494 31.2198 42.1878C31.1491 42.1399 31.1109 42.0835 31.1018 42.0148C31.0914 41.9305 31.0914 41.8482 31.1018 41.7691V41.7594C31.1025 41.7341 31.1064 41.7134 31.1128 41.6985L31.1193 41.6836V41.668C31.1193 41.6324 31.1232 41.6012 31.1297 41.574C31.1446 41.5526 31.1517 41.5261 31.1537 41.4937C31.6067 39.4131 32.5245 37.4985 33.8772 35.8062C33.9025 35.7796 33.9226 35.7517 33.9375 35.7238C34.0353 35.6091 34.1423 35.5041 34.2564 35.4114C34.3646 35.3239 34.5046 35.2675 34.6712 35.2455C34.8144 35.2319 34.9227 35.1878 34.992 35.1126C35.0477 35.0543 35.0951 34.9467 35.0017 34.7691C34.9337 34.6525 34.8358 34.5825 34.7107 34.5598C34.5986 34.5403 34.4845 34.5436 34.3691 34.5708C34.1423 34.6343 33.9459 34.7374 33.7839 34.878C33.6277 35.0135 33.4825 35.1645 33.3554 35.3246C31.8576 37.1258 30.8477 39.1629 30.3564 41.3789C30.3325 41.493 30.3208 41.5967 30.3208 41.6862V41.7775C30.3208 42.0031 30.3474 42.2092 30.4012 42.3913C30.4576 42.5858 30.5982 42.7504 30.8231 42.8833C30.9916 42.9727 31.1563 43.0174 31.3151 43.0174C31.3877 43.0174 31.4589 43.0084 31.5289 42.9902C31.7415 42.9332 31.9457 42.8412 32.1317 42.7167C32.4668 42.5074 32.7721 42.2649 33.0365 41.9953C34.1047 40.9447 34.8151 39.7041 35.1489 38.31V38.3028C35.202 37.9003 35.4502 37.6819 35.9078 37.6365C36.755 37.5393 37.5788 37.3662 38.3565 37.1225C39.1311 36.8801 39.9056 36.6092 40.6601 36.3169C40.6853 36.3072 40.7093 36.2962 40.7327 36.2851C40.7236 36.3052 40.7132 36.3253 40.7015 36.3454C40.6789 36.3953 40.6555 36.4504 40.6315 36.5133L40.1856 37.608C40.0819 37.8569 39.9717 38.0766 39.8654 38.2899C39.7403 38.5407 39.6114 38.8 39.4921 39.1052C38.958 40.4262 38.7214 41.6855 38.748 43.0693C38.7331 43.2087 38.7882 43.3312 38.8984 43.4076C38.9697 43.4569 39.0572 43.4809 39.146 43.4809C39.2218 43.4809 39.2989 43.4634 39.367 43.4277C39.5316 43.3409 39.6256 43.1646 39.6256 42.9436C39.6256 40.4391 40.1726 39.2744 41.4955 36.4627L41.6427 36.1497C41.9564 35.3745 42.4567 34.6965 43.1302 34.1359C43.987 33.4307 44.7583 32.6406 45.4207 31.7902C47.1409 29.7051 48.7742 27.5235 50.2773 25.3068C50.5184 24.9529 50.7336 24.5822 50.9183 24.2011L50.9507 24.1324C51.057 23.9561 51.1277 23.7675 51.1633 23.5724C51.2028 23.3598 51.1205 23.1504 50.9196 22.9495L50.9202 22.9488ZM48.6213 26.2998C47.7184 27.6162 46.728 28.9507 45.6754 30.2638C44.7376 31.435 43.9883 32.2705 43.4445 32.7521C43.6701 32.0378 44.1801 31.0695 44.9631 29.8672C45.8375 28.5268 46.7954 27.2363 47.8124 26.0334C48.7347 24.9419 49.5034 24.1998 50.1003 23.8232C49.9078 24.3151 49.4114 25.1461 48.6206 26.2998H48.6213ZM50.9202 22.9488C50.6169 22.6539 50.1295 22.7492 49.4684 23.236C48.6439 23.8822 47.907 24.623 47.2789 25.4364C45.2502 27.9104 43.5113 30.586 42.1106 33.386C42.0639 33.4728 42.0225 33.561 41.9888 33.6439C41.8539 33.92 41.6997 34.1936 41.5299 34.4574C41.3652 34.7153 41.141 34.9415 40.8688 35.1269C40.7566 35.193 40.6652 35.2773 40.5965 35.3771C40.5661 35.4205 40.533 35.4937 40.5512 35.5832L40.5188 35.5968C39.214 36.116 37.8393 36.5386 36.4277 36.8529C36.1386 36.9359 35.8489 36.9754 35.5663 36.9689C35.2973 36.9637 35.0413 36.8283 34.8047 36.5638C34.7127 36.466 34.594 36.4063 34.4521 36.3856C34.3076 36.3649 34.174 36.3966 34.0528 36.4828C33.9057 36.5962 33.8389 36.7259 33.8532 36.8678C33.8655 37.0026 33.9388 37.1264 34.071 37.2399C34.3795 37.4661 34.4936 37.7337 34.4203 38.0559C34.0256 39.6024 33.1629 40.9343 31.8556 42.0135H31.8394L31.8187 42.0342C31.7331 42.1146 31.6391 42.1768 31.538 42.2215C31.4512 42.2611 31.3468 42.2494 31.2198 42.1878C31.1491 42.1399 31.1109 42.0835 31.1018 42.0148C31.0914 41.9305 31.0914 41.8482 31.1018 41.7691V41.7594C31.1025 41.7341 31.1064 41.7134 31.1128 41.6985L31.1193 41.6836V41.668C31.1193 41.6324 31.1232 41.6012 31.1297 41.574C31.1446 41.5526 31.1517 41.5261 31.1537 41.4937C31.6067 39.4131 32.5245 37.4985 33.8772 35.8062C33.9025 35.7796 33.9226 35.7517 33.9375 35.7238C34.0353 35.6091 34.1423 35.5041 34.2564 35.4114C34.3646 35.3239 34.5046 35.2675 34.6712 35.2455C34.8144 35.2319 34.9227 35.1878 34.992 35.1126C35.0477 35.0543 35.0951 34.9467 35.0017 34.7691C34.9337 34.6525 34.8358 34.5825 34.7107 34.5598C34.5986 34.5403 34.4845 34.5436 34.3691 34.5708C34.1423 34.6343 33.9459 34.7374 33.7839 34.878C33.6277 35.0135 33.4825 35.1645 33.3554 35.3246C31.8576 37.1258 30.8477 39.1629 30.3564 41.3789C30.3325 41.493 30.3208 41.5967 30.3208 41.6862V41.7775C30.3208 42.0031 30.3474 42.2092 30.4012 42.3913C30.4576 42.5858 30.5982 42.7504 30.8231 42.8833C30.9916 42.9727 31.1563 43.0174 31.3151 43.0174C31.3877 43.0174 31.4589 43.0084 31.5289 42.9902C31.7415 42.9332 31.9457 42.8412 32.1317 42.7167C32.4668 42.5074 32.7721 42.2649 33.0365 41.9953C34.1047 40.9447 34.8151 39.7041 35.1489 38.31V38.3028C35.202 37.9003 35.4502 37.6819 35.9078 37.6365C36.755 37.5393 37.5788 37.3662 38.3565 37.1225C39.1311 36.8801 39.9056 36.6092 40.6601 36.3169C40.6853 36.3072 40.7093 36.2962 40.7327 36.2851C40.7236 36.3052 40.7132 36.3253 40.7015 36.3454C40.6789 36.3953 40.6555 36.4504 40.6315 36.5133L40.1856 37.608C40.0819 37.8569 39.9717 38.0766 39.8654 38.2899C39.7403 38.5407 39.6114 38.8 39.4921 39.1052C38.958 40.4262 38.7214 41.6855 38.748 43.0693C38.7331 43.2087 38.7882 43.3312 38.8984 43.4076C38.9697 43.4569 39.0572 43.4809 39.146 43.4809C39.2218 43.4809 39.2989 43.4634 39.367 43.4277C39.5316 43.3409 39.6256 43.1646 39.6256 42.9436C39.6256 40.4391 40.1726 39.2744 41.4955 36.4627L41.6427 36.1497C41.9564 35.3745 42.4567 34.6965 43.1302 34.1359C43.987 33.4307 44.7583 32.6406 45.4207 31.7902C47.1409 29.7051 48.7742 27.5235 50.2773 25.3068C50.5184 24.9529 50.7336 24.5822 50.9183 24.2011L50.9507 24.1324C51.057 23.9561 51.1277 23.7675 51.1633 23.5724C51.2028 23.3598 51.1205 23.1504 50.9196 22.9495L50.9202 22.9488ZM48.6213 26.2998C47.7184 27.6162 46.728 28.9507 45.6754 30.2638C44.7376 31.435 43.9883 32.2705 43.4445 32.7521C43.6701 32.0378 44.1801 31.0695 44.9631 29.8672C45.8375 28.5268 46.7954 27.2363 47.8124 26.0334C48.7347 24.9419 49.5034 24.1998 50.1003 23.8232C49.9078 24.3151 49.4114 25.1461 48.6206 26.2998H48.6213ZM48.2142 34.854L48.2097 34.8469C48.1747 34.8015 48.1319 34.7613 48.0814 34.7276C48.034 34.6965 47.9848 34.6706 47.9362 34.6518L47.9226 34.6479C47.5894 34.5883 47.2666 34.6537 46.9646 34.8417C46.6574 35.0323 46.4863 35.2753 46.4571 35.565C46.45 35.6337 46.4707 35.6973 46.5154 35.7459C46.5556 35.7887 46.6094 35.8217 46.6768 35.8431C46.7364 35.8632 46.7889 35.8723 46.8356 35.8723C46.975 35.8723 47.0625 35.7964 47.1163 35.7212C47.3081 35.4289 47.5959 35.2669 47.9919 35.2248C48.0827 35.2189 48.1552 35.1807 48.2084 35.112C48.2661 35.0368 48.2687 34.9461 48.2136 34.8547L48.2142 34.854ZM50.9202 22.9488C50.6169 22.6539 50.1295 22.7492 49.4684 23.236C48.6439 23.8822 47.907 24.623 47.2789 25.4364C45.2502 27.9104 43.5113 30.586 42.1106 33.386C42.0639 33.4728 42.0225 33.561 41.9888 33.6439C41.8539 33.92 41.6997 34.1936 41.5299 34.4574C41.3652 34.7153 41.141 34.9415 40.8688 35.1269C40.7566 35.193 40.6652 35.2773 40.5965 35.3771C40.5661 35.4205 40.533 35.4937 40.5512 35.5832L40.5188 35.5968C39.214 36.116 37.8393 36.5386 36.4277 36.8529C36.1386 36.9359 35.8489 36.9754 35.5663 36.9689C35.2973 36.9637 35.0413 36.8283 34.8047 36.5638C34.7127 36.466 34.594 36.4063 34.4521 36.3856C34.3076 36.3649 34.174 36.3966 34.0528 36.4828C33.9057 36.5962 33.8389 36.7259 33.8532 36.8678C33.8655 37.0026 33.9388 37.1264 34.071 37.2399C34.3795 37.4661 34.4936 37.7337 34.4203 38.0559C34.0256 39.6024 33.1629 40.9343 31.8556 42.0135H31.8394L31.8187 42.0342C31.7331 42.1146 31.6391 42.1768 31.538 42.2215C31.4512 42.2611 31.3468 42.2494 31.2198 42.1878C31.1491 42.1399 31.1109 42.0835 31.1018 42.0148C31.0914 41.9305 31.0914 41.8482 31.1018 41.7691V41.7594C31.1025 41.7341 31.1064 41.7134 31.1128 41.6985L31.1193 41.6836V41.668C31.1193 41.6324 31.1232 41.6012 31.1297 41.574C31.1446 41.5526 31.1517 41.5261 31.1537 41.4937C31.6067 39.4131 32.5245 37.4985 33.8772 35.8062C33.9025 35.7796 33.9226 35.7517 33.9375 35.7238C34.0353 35.6091 34.1423 35.5041 34.2564 35.4114C34.3646 35.3239 34.5046 35.2675 34.6712 35.2455C34.8144 35.2319 34.9227 35.1878 34.992 35.1126C35.0477 35.0543 35.0951 34.9467 35.0017 34.7691C34.9337 34.6525 34.8358 34.5825 34.7107 34.5598C34.5986 34.5403 34.4845 34.5436 34.3691 34.5708C34.1423 34.6343 33.9459 34.7374 33.7839 34.878C33.6277 35.0135 33.4825 35.1645 33.3554 35.3246C31.8576 37.1258 30.8477 39.1629 30.3564 41.3789C30.3325 41.493 30.3208 41.5967 30.3208 41.6862V41.7775C30.3208 42.0031 30.3474 42.2092 30.4012 42.3913C30.4576 42.5858 30.5982 42.7504 30.8231 42.8833C30.9916 42.9727 31.1563 43.0174 31.3151 43.0174C31.3877 43.0174 31.4589 43.0084 31.5289 42.9902C31.7415 42.9332 31.9457 42.8412 32.1317 42.7167C32.4668 42.5074 32.7721 42.2649 33.0365 41.9953C34.1047 40.9447 34.8151 39.7041 35.1489 38.31V38.3028C35.202 37.9003 35.4502 37.6819 35.9078 37.6365C36.755 37.5393 37.5788 37.3662 38.3565 37.1225C39.1311 36.8801 39.9056 36.6092 40.6601 36.3169C40.6853 36.3072 40.7093 36.2962 40.7327 36.2851C40.7236 36.3052 40.7132 36.3253 40.7015 36.3454C40.6789 36.3953 40.6555 36.4504 40.6315 36.5133L40.1856 37.608C40.0819 37.8569 39.9717 38.0766 39.8654 38.2899C39.7403 38.5407 39.6114 38.8 39.4921 39.1052C38.958 40.4262 38.7214 41.6855 38.748 43.0693C38.7331 43.2087 38.7882 43.3312 38.8984 43.4076C38.9697 43.4569 39.0572 43.4809 39.146 43.4809C39.2218 43.4809 39.2989 43.4634 39.367 43.4277C39.5316 43.3409 39.6256 43.1646 39.6256 42.9436C39.6256 40.4391 40.1726 39.2744 41.4955 36.4627L41.6427 36.1497C41.9564 35.3745 42.4567 34.6965 43.1302 34.1359C43.987 33.4307 44.7583 32.6406 45.4207 31.7902C47.1409 29.7051 48.7742 27.5235 50.2773 25.3068C50.5184 24.9529 50.7336 24.5822 50.9183 24.2011L50.9507 24.1324C51.057 23.9561 51.1277 23.7675 51.1633 23.5724C51.2028 23.3598 51.1205 23.1504 50.9196 22.9495L50.9202 22.9488ZM48.6213 26.2998C47.7184 27.6162 46.728 28.9507 45.6754 30.2638C44.7376 31.435 43.9883 32.2705 43.4445 32.7521C43.6701 32.0378 44.1801 31.0695 44.9631 29.8672C45.8375 28.5268 46.7954 27.2363 47.8124 26.0334C48.7347 24.9419 49.5034 24.1998 50.1003 23.8232C49.9078 24.3151 49.4114 25.1461 48.6206 26.2998H48.6213ZM48.2142 34.854L48.2097 34.8469C48.1747 34.8015 48.1319 34.7613 48.0814 34.7276C48.034 34.6965 47.9848 34.6706 47.9362 34.6518L47.9226 34.6479C47.5894 34.5883 47.2666 34.6537 46.9646 34.8417C46.6574 35.0323 46.4863 35.2753 46.4571 35.565C46.45 35.6337 46.4707 35.6973 46.5154 35.7459C46.5556 35.7887 46.6094 35.8217 46.6768 35.8431C46.7364 35.8632 46.7889 35.8723 46.8356 35.8723C46.975 35.8723 47.0625 35.7964 47.1163 35.7212C47.3081 35.4289 47.5959 35.2669 47.9919 35.2248C48.0827 35.2189 48.1552 35.1807 48.2084 35.112C48.2661 35.0368 48.2687 34.9461 48.2136 34.8547L48.2142 34.854ZM48.2142 34.854L48.2097 34.8469C48.1747 34.8015 48.1319 34.7613 48.0814 34.7276C48.034 34.6965 47.9848 34.6706 47.9362 34.6518L47.9226 34.6479C47.5894 34.5883 47.2666 34.6537 46.9646 34.8417C46.6574 35.0323 46.4863 35.2753 46.4571 35.565C46.45 35.6337 46.4707 35.6973 46.5154 35.7459C46.5556 35.7887 46.6094 35.8217 46.6768 35.8431C46.7364 35.8632 46.7889 35.8723 46.8356 35.8723C46.975 35.8723 47.0625 35.7964 47.1163 35.7212C47.3081 35.4289 47.5959 35.2669 47.9919 35.2248C48.0827 35.2189 48.1552 35.1807 48.2084 35.112C48.2661 35.0368 48.2687 34.9461 48.2136 34.8547L48.2142 34.854ZM50.9202 22.9488C50.6169 22.6539 50.1295 22.7492 49.4684 23.236C48.6439 23.8822 47.907 24.623 47.2789 25.4364C45.2502 27.9104 43.5113 30.586 42.1106 33.386C42.0639 33.4728 42.0225 33.561 41.9888 33.6439C41.8539 33.92 41.6997 34.1936 41.5299 34.4574C41.3652 34.7153 41.141 34.9415 40.8688 35.1269C40.7566 35.193 40.6652 35.2773 40.5965 35.3771C40.5661 35.4205 40.533 35.4937 40.5512 35.5832L40.5188 35.5968C39.214 36.116 37.8393 36.5386 36.4277 36.8529C36.1386 36.9359 35.8489 36.9754 35.5663 36.9689C35.2973 36.9637 35.0413 36.8283 34.8047 36.5638C34.7127 36.466 34.594 36.4063 34.4521 36.3856C34.3076 36.3649 34.174 36.3966 34.0528 36.4828C33.9057 36.5962 33.8389 36.7259 33.8532 36.8678C33.8655 37.0026 33.9388 37.1264 34.071 37.2399C34.3795 37.4661 34.4936 37.7337 34.4203 38.0559C34.0256 39.6024 33.1629 40.9343 31.8556 42.0135H31.8394L31.8187 42.0342C31.7331 42.1146 31.6391 42.1768 31.538 42.2215C31.4512 42.2611 31.3468 42.2494 31.2198 42.1878C31.1491 42.1399 31.1109 42.0835 31.1018 42.0148C31.0914 41.9305 31.0914 41.8482 31.1018 41.7691V41.7594C31.1025 41.7341 31.1064 41.7134 31.1128 41.6985L31.1193 41.6836V41.668C31.1193 41.6324 31.1232 41.6012 31.1297 41.574C31.1446 41.5526 31.1517 41.5261 31.1537 41.4937C31.6067 39.4131 32.5245 37.4985 33.8772 35.8062C33.9025 35.7796 33.9226 35.7517 33.9375 35.7238C34.0353 35.6091 34.1423 35.5041 34.2564 35.4114C34.3646 35.3239 34.5046 35.2675 34.6712 35.2455C34.8144 35.2319 34.9227 35.1878 34.992 35.1126C35.0477 35.0543 35.0951 34.9467 35.0017 34.7691C34.9337 34.6525 34.8358 34.5825 34.7107 34.5598C34.5986 34.5403 34.4845 34.5436 34.3691 34.5708C34.1423 34.6343 33.9459 34.7374 33.7839 34.878C33.6277 35.0135 33.4825 35.1645 33.3554 35.3246C31.8576 37.1258 30.8477 39.1629 30.3564 41.3789C30.3325 41.493 30.3208 41.5967 30.3208 41.6862V41.7775C30.3208 42.0031 30.3474 42.2092 30.4012 42.3913C30.4576 42.5858 30.5982 42.7504 30.8231 42.8833C30.9916 42.9727 31.1563 43.0174 31.3151 43.0174C31.3877 43.0174 31.4589 43.0084 31.5289 42.9902C31.7415 42.9332 31.9457 42.8412 32.1317 42.7167C32.4668 42.5074 32.7721 42.2649 33.0365 41.9953C34.1047 40.9447 34.8151 39.7041 35.1489 38.31V38.3028C35.202 37.9003 35.4502 37.6819 35.9078 37.6365C36.755 37.5393 37.5788 37.3662 38.3565 37.1225C39.1311 36.8801 39.9056 36.6092 40.6601 36.3169C40.6853 36.3072 40.7093 36.2962 40.7327 36.2851C40.7236 36.3052 40.7132 36.3253 40.7015 36.3454C40.6789 36.3953 40.6555 36.4504 40.6315 36.5133L40.1856 37.608C40.0819 37.8569 39.9717 38.0766 39.8654 38.2899C39.7403 38.5407 39.6114 38.8 39.4921 39.1052C38.958 40.4262 38.7214 41.6855 38.748 43.0693C38.7331 43.2087 38.7882 43.3312 38.8984 43.4076C38.9697 43.4569 39.0572 43.4809 39.146 43.4809C39.2218 43.4809 39.2989 43.4634 39.367 43.4277C39.5316 43.3409 39.6256 43.1646 39.6256 42.9436C39.6256 40.4391 40.1726 39.2744 41.4955 36.4627L41.6427 36.1497C41.9564 35.3745 42.4567 34.6965 43.1302 34.1359C43.987 33.4307 44.7583 32.6406 45.4207 31.7902C47.1409 29.7051 48.7742 27.5235 50.2773 25.3068C50.5184 24.9529 50.7336 24.5822 50.9183 24.2011L50.9507 24.1324C51.057 23.9561 51.1277 23.7675 51.1633 23.5724C51.2028 23.3598 51.1205 23.1504 50.9196 22.9495L50.9202 22.9488ZM48.6213 26.2998C47.7184 27.6162 46.728 28.9507 45.6754 30.2638C44.7376 31.435 43.9883 32.2705 43.4445 32.7521C43.6701 32.0378 44.1801 31.0695 44.9631 29.8672C45.8375 28.5268 46.7954 27.2363 47.8124 26.0334C48.7347 24.9419 49.5034 24.1998 50.1003 23.8232C49.9078 24.3151 49.4114 25.1461 48.6206 26.2998H48.6213ZM50.9202 22.9488C50.6169 22.6539 50.1295 22.7492 49.4684 23.236C48.6439 23.8822 47.907 24.623 47.2789 25.4364C45.2502 27.9104 43.5113 30.586 42.1106 33.386C42.0639 33.4728 42.0225 33.561 41.9888 33.6439C41.8539 33.92 41.6997 34.1936 41.5299 34.4574C41.3652 34.7153 41.141 34.9415 40.8688 35.1269C40.7566 35.193 40.6652 35.2773 40.5965 35.3771C40.5661 35.4205 40.533 35.4937 40.5512 35.5832L40.5188 35.5968C39.214 36.116 37.8393 36.5386 36.4277 36.8529C36.1386 36.9359 35.8489 36.9754 35.5663 36.9689C35.2973 36.9637 35.0413 36.8283 34.8047 36.5638C34.7127 36.466 34.594 36.4063 34.4521 36.3856C34.3076 36.3649 34.174 36.3966 34.0528 36.4828C33.9057 36.5962 33.8389 36.7259 33.8532 36.8678C33.8655 37.0026 33.9388 37.1264 34.071 37.2399C34.3795 37.4661 34.4936 37.7337 34.4203 38.0559C34.0256 39.6024 33.1629 40.9343 31.8556 42.0135H31.8394L31.8187 42.0342C31.7331 42.1146 31.6391 42.1768 31.538 42.2215C31.4512 42.2611 31.3468 42.2494 31.2198 42.1878C31.1491 42.1399 31.1109 42.0835 31.1018 42.0148C31.0914 41.9305 31.0914 41.8482 31.1018 41.7691V41.7594C31.1025 41.7341 31.1064 41.7134 31.1128 41.6985L31.1193 41.6836V41.668C31.1193 41.6324 31.1232 41.6012 31.1297 41.574C31.1446 41.5526 31.1517 41.5261 31.1537 41.4937C31.6067 39.4131 32.5245 37.4985 33.8772 35.8062C33.9025 35.7796 33.9226 35.7517 33.9375 35.7238C34.0353 35.6091 34.1423 35.5041 34.2564 35.4114C34.3646 35.3239 34.5046 35.2675 34.6712 35.2455C34.8144 35.2319 34.9227 35.1878 34.992 35.1126C35.0477 35.0543 35.0951 34.9467 35.0017 34.7691C34.9337 34.6525 34.8358 34.5825 34.7107 34.5598C34.5986 34.5403 34.4845 34.5436 34.3691 34.5708C34.1423 34.6343 33.9459 34.7374 33.7839 34.878C33.6277 35.0135 33.4825 35.1645 33.3554 35.3246C31.8576 37.1258 30.8477 39.1629 30.3564 41.3789C30.3325 41.493 30.3208 41.5967 30.3208 41.6862V41.7775C30.3208 42.0031 30.3474 42.2092 30.4012 42.3913C30.4576 42.5858 30.5982 42.7504 30.8231 42.8833C30.9916 42.9727 31.1563 43.0174 31.3151 43.0174C31.3877 43.0174 31.4589 43.0084 31.5289 42.9902C31.7415 42.9332 31.9457 42.8412 32.1317 42.7167C32.4668 42.5074 32.7721 42.2649 33.0365 41.9953C34.1047 40.9447 34.8151 39.7041 35.1489 38.31V38.3028C35.202 37.9003 35.4502 37.6819 35.9078 37.6365C36.755 37.5393 37.5788 37.3662 38.3565 37.1225C39.1311 36.8801 39.9056 36.6092 40.6601 36.3169C40.6853 36.3072 40.7093 36.2962 40.7327 36.2851C40.7236 36.3052 40.7132 36.3253 40.7015 36.3454C40.6789 36.3953 40.6555 36.4504 40.6315 36.5133L40.1856 37.608C40.0819 37.8569 39.9717 38.0766 39.8654 38.2899C39.7403 38.5407 39.6114 38.8 39.4921 39.1052C38.958 40.4262 38.7214 41.6855 38.748 43.0693C38.7331 43.2087 38.7882 43.3312 38.8984 43.4076C38.9697 43.4569 39.0572 43.4809 39.146 43.4809C39.2218 43.4809 39.2989 43.4634 39.367 43.4277C39.5316 43.3409 39.6256 43.1646 39.6256 42.9436C39.6256 40.4391 40.1726 39.2744 41.4955 36.4627L41.6427 36.1497C41.9564 35.3745 42.4567 34.6965 43.1302 34.1359C43.987 33.4307 44.7583 32.6406 45.4207 31.7902C47.1409 29.7051 48.7742 27.5235 50.2773 25.3068C50.5184 24.9529 50.7336 24.5822 50.9183 24.2011L50.9507 24.1324C51.057 23.9561 51.1277 23.7675 51.1633 23.5724C51.2028 23.3598 51.1205 23.1504 50.9196 22.9495L50.9202 22.9488ZM48.6213 26.2998C47.7184 27.6162 46.728 28.9507 45.6754 30.2638C44.7376 31.435 43.9883 32.2705 43.4445 32.7521C43.6701 32.0378 44.1801 31.0695 44.9631 29.8672C45.8375 28.5268 46.7954 27.2363 47.8124 26.0334C48.7347 24.9419 49.5034 24.1998 50.1003 23.8232C49.9078 24.3151 49.4114 25.1461 48.6206 26.2998H48.6213ZM48.2142 34.854L48.2097 34.8469C48.1747 34.8015 48.1319 34.7613 48.0814 34.7276C48.034 34.6965 47.9848 34.6706 47.9362 34.6518L47.9226 34.6479C47.5894 34.5883 47.2666 34.6537 46.9646 34.8417C46.6574 35.0323 46.4863 35.2753 46.4571 35.565C46.45 35.6337 46.4707 35.6973 46.5154 35.7459C46.5556 35.7887 46.6094 35.8217 46.6768 35.8431C46.7364 35.8632 46.7889 35.8723 46.8356 35.8723C46.975 35.8723 47.0625 35.7964 47.1163 35.7212C47.3081 35.4289 47.5959 35.2669 47.9919 35.2248C48.0827 35.2189 48.1552 35.1807 48.2084 35.112C48.2661 35.0368 48.2687 34.9461 48.2136 34.8547L48.2142 34.854Z" fill="url(#paint7_linear_4803_8823)"/>
<path d="M50.5944 17.2037C50.2521 18.616 49.6383 19.922 48.7543 21.1218C46.4423 24.2044 43.5166 26.7321 39.9783 28.7064C37.3378 30.2704 34.4918 31.4857 31.4383 32.3509C30.6677 32.5635 29.8756 32.7152 29.0629 32.8066C27.821 32.9589 26.8222 32.8565 26.0658 32.4994C25.3094 32.1429 24.6386 31.4396 24.054 30.3922C23.726 30.726 23.4836 31.0754 23.3261 31.4396C23.2548 31.5621 23.1907 31.6827 23.1336 31.8045C23.0053 32.0171 22.8847 32.2219 22.77 32.4196C21.2857 34.9403 19.8656 37.4843 18.5104 40.0503C18.1818 40.6881 17.8745 41.3407 17.59 42.009C17.5751 42.0394 17.5608 42.0699 17.5472 42.1004C17.4902 42.2067 17.4617 42.3123 17.4617 42.4193C17.4617 42.5262 17.5472 42.6241 17.7183 42.7155C17.8324 42.7615 17.9108 42.825 17.9536 42.9093C17.9964 42.9922 17.9828 43.0804 17.9115 43.1711C17.8395 43.2774 17.7404 43.3377 17.612 43.3532C17.4831 43.3682 17.3547 43.3759 17.2264 43.3759C16.9269 43.3604 16.7338 43.2236 16.6489 42.9657C16.5769 42.5703 16.6275 42.1989 16.7986 41.8495C17.2698 40.6809 17.8181 39.5415 18.4469 38.4325C19.5312 36.5043 20.6227 34.5832 21.7219 32.6698C22.3921 31.4857 23.063 30.3008 23.7338 29.1167C23.7759 29.0557 23.8194 28.9877 23.8621 28.9112C24.0469 28.6234 24.1901 28.3194 24.2899 28.0006C24.6892 26.5882 25.2284 25.2407 25.9057 23.9574C26.5831 22.6741 27.3433 21.4251 28.1846 20.2105C29.1549 18.8137 30.1537 17.4312 31.1817 16.0643C31.2381 16.004 31.2886 15.9359 31.3314 15.8595C31.4448 15.6469 31.5842 15.4725 31.7488 15.3357C31.9121 15.1983 32.1157 15.1834 32.3587 15.2897C32.6011 15.442 32.6899 15.6125 32.6264 15.8024C32.5616 15.9923 32.4579 16.1783 32.3159 16.3611C32.2589 16.437 32.209 16.5134 32.1662 16.5886C29.969 20.2636 27.7646 23.9231 25.5531 27.5676C25.0962 28.2663 24.8817 29.0259 24.9108 29.8458C25.0534 31.2121 25.8876 31.9711 27.4146 32.1234C28.5709 32.2297 29.6767 32.1234 30.7325 31.8045C34.0426 30.8628 37.0818 29.5756 39.8507 27.9435C42.6182 26.3108 45.0585 24.2802 47.1708 21.8503C48.4833 20.4231 49.3681 18.7832 49.825 16.9302C50.4245 14.2579 49.2605 12.375 46.3354 11.2816C44.6379 10.6587 42.8963 10.31 41.1132 10.2335C38.6555 10.1182 35.5424 10.356 32.0755 11.0346C22.048 12.9959 12.8488 17.9426 5.58889 25.1325C4.47213 26.2389 3.70926 27.0322 3.67944 27.0893C4.08713 26.1488 4.17592 24.9082 4.17592 24.9082C4.2537 24.8058 5.43852 23.7694 6.7763 22.6112C13.9591 16.3929 22.6242 12.1106 31.9445 10.2692C34.0543 9.85241 35.9326 9.6113 37.4311 9.52769C39.8565 9.34556 42.2682 9.52056 44.6651 10.0514C45.3353 10.2193 45.9996 10.4234 46.6556 10.6665C49.9806 11.942 51.2931 14.1218 50.5937 17.2044L50.5944 17.2037Z" fill="url(#paint8_linear_4803_8823)"/>
<path d="M66.8635 31.6146C65.9133 32.684 64.409 34.1216 63.1807 34.9908C59.8091 37.525 55.7076 39.6892 50.9904 41.4217C48.6291 42.2889 47.1021 42.6156 45.2037 42.7102L44.7104 42.7161C44.6003 42.7115 44.4894 42.7037 44.3805 42.6921C43.6345 42.5897 43.1387 42.3434 42.9041 41.959C42.5463 41.375 42.8652 40.6128 43.1335 40.0502C43.4569 39.3723 43.9145 38.7669 44.3896 38.19C44.5147 38.0377 44.645 37.8848 44.8141 37.783C44.9833 37.6819 45.2004 37.6411 45.378 37.7266C45.555 37.8128 45.6606 38.0487 45.5634 38.2199C45.5057 38.3216 45.3975 38.3793 45.2977 38.4402C44.4492 38.9562 44.0027 39.9245 43.6306 40.8449C43.5431 41.062 43.4563 41.3018 43.5289 41.5241C43.6442 41.8767 44.083 41.9882 44.4525 42.0122C45.8927 42.1042 47.3354 41.6998 48.6875 41.2584C52.2763 40.0878 55.6849 38.435 58.9691 36.58C59.5829 36.232 60.1908 35.8716 60.7897 35.4989C61.1196 35.2935 61.4443 35.0809 61.7704 34.8683C63.5528 33.7055 65.4732 32.0028 66.6892 30.7026L66.8641 31.6146H66.8635Z" fill="url(#paint9_linear_4803_8823)"/>
<path d="M66.7412 28.4162C66.316 26.3959 65.699 24.4197 64.8914 22.4999C63.2574 18.6188 60.9183 15.1324 57.9394 12.1393C54.9611 9.14611 51.4916 6.79593 47.628 5.15352C43.6283 3.45343 39.3803 2.59204 35.0008 2.59204C30.6212 2.59204 26.3726 3.45408 22.3729 5.15352C18.5106 6.79528 15.041 9.14611 12.0615 12.1393C9.08197 15.1324 6.7441 18.6188 5.11012 22.4999C3.41845 26.5191 2.5603 30.7871 2.5603 35.1874C2.5603 39.5877 3.41845 43.8564 5.11012 47.8749C6.7441 51.756 9.08262 55.2424 12.0615 58.2356C15.041 61.2287 18.5099 63.5789 22.3729 65.2213C26.3726 66.9214 30.6219 67.7828 35.0008 67.7828C39.3797 67.7828 43.6283 66.9207 47.628 65.2213C51.4916 63.5795 54.9605 61.2287 57.9394 58.2356C60.9189 55.2424 63.2581 51.756 64.8914 47.8749C66.5831 43.8564 67.4406 39.5877 67.4406 35.1874C67.4406 33.0699 66.8235 28.5407 66.7412 28.4162ZM64.4228 47.6779C62.8147 51.4987 60.5119 54.9306 57.5796 57.8778C54.6474 60.8243 51.2317 63.1375 47.4296 64.754C43.4928 66.4269 39.3116 67.2759 35.0008 67.2759C30.6899 67.2759 26.5081 66.4275 22.5712 64.754C18.7685 63.1382 15.3541 60.8249 12.4219 57.8778C9.48836 54.9306 7.18678 51.4987 5.57808 47.6779C3.91299 43.7216 3.06845 39.5196 3.06845 35.1874C3.06845 31.2907 3.75225 27.4984 5.10104 23.8973C5.10169 23.8967 5.10169 23.8954 5.10234 23.8934C5.10623 23.8831 5.11077 23.8727 5.11401 23.8623C5.11465 23.8591 5.11595 23.8565 5.11789 23.8532C5.16067 23.7372 5.20539 23.6219 5.25012 23.5071C5.27669 23.4527 5.30456 23.3989 5.33308 23.3438C5.74077 22.4033 6.52243 20.6566 6.52243 20.6566C8.04299 17.6472 10.0211 14.9094 12.4219 12.497C15.3541 9.55056 18.7692 7.23732 22.5712 5.62084C26.5081 3.94797 30.6893 3.09889 35.0008 3.09889C39.3122 3.09889 43.4928 3.94732 47.4296 5.62084C51.2323 7.23667 54.6474 9.54991 57.5796 12.497C60.5119 15.4442 62.8147 18.8761 64.4228 22.6969C65.2291 24.6116 65.8422 26.5845 66.2616 28.6022L66.4366 29.5142C66.7665 31.3731 66.9331 33.2669 66.9331 35.1868C66.9331 39.519 66.0892 43.7209 64.4234 47.6772L64.4228 47.6779Z" fill="url(#paint10_linear_4803_8823)"/>
</g>
<defs>
<linearGradient id="paint0_linear_4803_8823" x1="11.8609" y1="43.5957" x2="41.5889" y2="59.9427" gradientUnits="userSpaceOnUse">
<stop stop-color="#F4C426"/>
<stop offset="0.32" stop-color="#DFAA1C"/>
<stop offset="0.68" stop-color="#FAF487"/>
<stop offset="1" stop-color="#FBCE42"/>
</linearGradient>
<linearGradient id="paint1_linear_4803_8823" x1="13.3632" y1="40.8632" x2="43.0919" y2="57.2101" gradientUnits="userSpaceOnUse">
<stop stop-color="#F4C426"/>
<stop offset="0.32" stop-color="#DFAA1C"/>
<stop offset="0.68" stop-color="#FAF487"/>
<stop offset="1" stop-color="#FBCE42"/>
</linearGradient>
<linearGradient id="paint2_linear_4803_8823" x1="14.6681" y1="38.4916" x2="44.396" y2="54.8379" gradientUnits="userSpaceOnUse">
<stop stop-color="#F4C426"/>
<stop offset="0.32" stop-color="#DFAA1C"/>
<stop offset="0.68" stop-color="#FAF487"/>
<stop offset="1" stop-color="#FBCE42"/>
</linearGradient>
<linearGradient id="paint3_linear_4803_8823" x1="15.5617" y1="36.8654" x2="45.2903" y2="53.2117" gradientUnits="userSpaceOnUse">
<stop stop-color="#F4C426"/>
<stop offset="0.32" stop-color="#DFAA1C"/>
<stop offset="0.68" stop-color="#FAF487"/>
<stop offset="1" stop-color="#FBCE42"/>
</linearGradient>
<linearGradient id="paint4_linear_4803_8823" x1="16.4051" y1="35.332" x2="46.133" y2="51.6789" gradientUnits="userSpaceOnUse">
<stop stop-color="#F4C426"/>
<stop offset="0.32" stop-color="#DFAA1C"/>
<stop offset="0.68" stop-color="#FAF487"/>
<stop offset="1" stop-color="#FBCE42"/>
</linearGradient>
<linearGradient id="paint5_linear_4803_8823" x1="9.39678" y1="48.0777" x2="39.1247" y2="64.4247" gradientUnits="userSpaceOnUse">
<stop stop-color="#F4C426"/>
<stop offset="0.32" stop-color="#DFAA1C"/>
<stop offset="0.68" stop-color="#FAF487"/>
<stop offset="1" stop-color="#FBCE42"/>
</linearGradient>
<linearGradient id="paint6_linear_4803_8823" x1="18.9388" y1="30.7249" x2="48.6667" y2="47.0719" gradientUnits="userSpaceOnUse">
<stop stop-color="#F4C426"/>
<stop offset="0.32" stop-color="#DFAA1C"/>
<stop offset="0.68" stop-color="#FAF487"/>
<stop offset="1" stop-color="#FBCE42"/>
</linearGradient>
<linearGradient id="paint7_linear_4803_8823" x1="30.3214" y1="33.1319" x2="51.1737" y2="33.1319" gradientUnits="userSpaceOnUse">
<stop stop-color="#F4C426"/>
<stop offset="0.32" stop-color="#DFAA1C"/>
<stop offset="0.68" stop-color="#FAF487"/>
<stop offset="1" stop-color="#FBCE42"/>
</linearGradient>
<linearGradient id="paint8_linear_4803_8823" x1="3.6788" y1="26.4171" x2="50.7765" y2="26.4171" gradientUnits="userSpaceOnUse">
<stop stop-color="#F4C426"/>
<stop offset="0.32" stop-color="#DFAA1C"/>
<stop offset="0.68" stop-color="#FAF487"/>
<stop offset="1" stop-color="#FBCE42"/>
</linearGradient>
<linearGradient id="paint9_linear_4803_8823" x1="42.7446" y1="36.709" x2="66.8635" y2="36.709" gradientUnits="userSpaceOnUse">
<stop stop-color="#F4C426"/>
<stop offset="0.32" stop-color="#DFAA1C"/>
<stop offset="0.68" stop-color="#FAF487"/>
<stop offset="1" stop-color="#FBCE42"/>
</linearGradient>
<linearGradient id="paint10_linear_4803_8823" x1="2.55965" y1="35.1874" x2="67.4406" y2="35.1874" gradientUnits="userSpaceOnUse">
<stop stop-color="#F4C426"/>
<stop offset="0.32" stop-color="#DFAA1C"/>
<stop offset="0.68" stop-color="#FAF487"/>
<stop offset="1" stop-color="#FBCE42"/>
</linearGradient>
<clipPath id="clip0_4803_8823">
<rect width="54.315" height="69.2308" fill="white" transform="translate(98.6851)"/>
</clipPath>
<clipPath id="clip1_4803_8823">
<rect width="70" height="70" fill="white"/>
</clipPath>
</defs>
</svg>
